<?xml version="1.0" standalone="no"?>
<!DOCTYPE svg PUBLIC "-//W3C//DTD SVG 20010904//EN"
 "http://www.w3.org/TR/2001/REC-SVG-20010904/DTD/svg10.dtd">
<svg version="1.0" xmlns="http://www.w3.org/2000/svg"
 width="626.000000pt" height="626.000000pt" viewBox="0 0 626.000000 626.000000"
 preserveAspectRatio="xMidYMid meet">

<g transform="translate(0.000000,626.000000) scale(0.100000,-0.100000)"
fill="#000000" stroke="none">
<path d="M2600 5004 c-14 -2 -59 -9 -100 -15 -524 -78 -998 -478 -1169 -987
-58 -173 -74 -278 -75 -472 0 -328 73 -571 251 -838 191 -287 492 -506 830
-602 239 -69 555 -70 793 -4 128 36 301 112 392 171 l39 26 36 -34 c20 -19 46
-43 58 -54 12 -11 183 -179 380 -374 l357 -354 190 189 189 189 -412 405 -412
405 48 74 c171 264 252 594 225 911 -53 634 -484 1151 -1100 1320 -141 38
-404 61 -520 44z m425 -463 c292 -81 541 -282 672 -546 211 -420 121 -923
-220 -1241 -188 -175 -413 -269 -673 -281 -525 -25 -981 339 -1079 863 -25
128 -16 335 19 461 105 381 410 670 796 754 121 27 370 21 485 -10z"/>
<path d="M4677 1562 l-188 -188 69 -66 c81 -79 113 -89 195 -63 106 33 213
141 243 244 25 84 15 114 -63 193 l-68 68 -188 -188z"/>
</g>
</svg>
